Coordinates
version=1
nRows=16
nColumns=36
inDegrees=yes

Units are S.I. units (second, meters, Newtons, ...)
If the header above contains a line with 'inDegrees', this indicates whether rotational values are in degrees (yes) or radians (no).

endheader
time	pelvis_tilt	pelvis_list	pelvis_rotation	pelvis_tx	pelvis_ty	pelvis_tz	hip_flexion_r	hip_adduction_r	hip_rotation_r	knee_angle_r	knee_angle_r_beta	ankle_angle_r	subtalar_angle_r	mtp_angle_r	hip_flexion_l	hip_adduction_l	hip_rotation_l	knee_angle_l	knee_angle_l_beta	ankle_angle_l	subtalar_angle_l	mtp_angle_l	lumbar_extension	lumbar_bending	lumbar_rotation	arm_flex_r	arm_add_r	arm_rot_r	elbow_flex_r	pro_sup_r	arm_flex_l	arm_add_l	arm_rot_l	elbow_flex_l	pro_sup_l
      0.64000000	      2.04857608	      3.78906274	      0.28128020	      0.77733687	      0.92617149	     -0.24183358	     11.19831838	     -8.77469749	     -6.58908533	     74.84366090	      1.30626831	     -2.82569684	    -15.61950497	     -6.88443319	     21.85089569	      3.02681638	     -5.80622088	     32.55368667	      0.56816902	     12.44404659	     -4.54763738	     -6.88443319	     -9.40480817	    -19.32621346	      1.09660613	      6.08953560	    -13.03563450	      4.26660553	     66.10674155	    108.35343840	      1.52427486	     -9.93795329	    -12.48981477	     38.94624262	    103.17595590
      0.65000000	      1.97704339	      3.81176712	     -0.00613939	      0.78789677	      0.92619934	     -0.24213356	     13.43660616	     -8.68740521	     -5.76635813	     76.68956527	      1.33848542	     -1.41764164	    -14.74088446	     -6.90779176	     21.36018639	      2.95049223	     -6.14619975	     33.05081272	      0.57684550	     13.68812678	     -3.95822983	     -6.90779176	     -9.51628895	    -19.47774673	      0.86325844	      5.79658247	    -12.84497147	      3.93304808	     65.54155222	    108.33570724	      2.68012001	     -9.95736814	    -11.97234520	     38.17681665	    103.09112007
      0.66000000	      2.09264409	      3.83512444	     -0.33755672	      0.79847312	      0.92704484	     -0.24241502	     15.34107008	     -8.52003196	     -4.96388658	     77.92757285	      1.36009272	     -0.78015552	    -14.43643793	     -6.91568663	     20.44496001	      2.98635432	     -6.32511808	     33.09001988	      0.57752980	     14.59139188	     -4.19556736	     -6.91568663	     -9.85783888	    -19.60483428	      0.49746549	      5.66716503	    -12.60439080	      3.73270253	     64.82153727	    108.32416110	      3.64375457	     -9.87022914	    -11.88887218	     37.83683257	    103.05717830
      0.67000000	      2.26329852	      3.62742738	     -0.44538803	      0.80905674	      0.92846884	     -0.24271446	     16.92441257	     -8.04607728	     -4.50294055	     78.51479106	      1.37034162	     -0.64652114	    -14.28982372	     -6.91700215	     19.43788081	      2.84048570	     -6.23305742	     33.04259281	      0.57670204	     14.81096912	     -4.24183161	     -6.91700215	    -10.37256402	    -19.45198273	     -0.10196312	      5.41877609	    -12.41000294	      3.70340898	     64.44661157	    108.31081438	      4.47869853	     -9.79548379	    -11.82829172	     37.91184984	    103.07037873
      0.68000000	      2.35805271	      3.62766138	     -1.01784502	      0.81972986	      0.93018156	     -0.24247679	     18.68468976	     -7.59902488	     -3.40372139	     78.82098993	      1.37568579	      0.12546896	    -12.71157840	     -6.92412525	     18.23017284	      2.88355061	     -6.39540324	     32.54064069	      0.56794132	     15.99419691	     -4.54565117	     -6.92412525	    -10.38915300	    -19.54257247	     -0.09007507	      5.33218529	    -11.96310796	      3.21533143	     63.12130103	    108.29067562	      5.48077365	     -9.60182230	    -11.83149616	     37.25459959	    103.04834975
      0.69000000	      2.50825491	      3.53458004	     -1.20704505	      0.83036905	      0.93229714	     -0.24252007	     20.09714878	     -7.17577415	     -2.81717036	     78.69283202	      1.37344902	      2.09229796	     -9.69320134	     -6.94669523	     17.00048005	      2.90865563	     -6.27631585	     32.02379131	      0.55892060	     16.36751575	     -4.35524811	     -6.94669523	    -10.69739569	    -19.44715712	     -0.34350799	      4.91250047	    -11.61655931	      2.65512106	     62.60495126	    108.55698375	      6.52243656	     -9.47939853	    -11.43827759	     36.76447379	    103.22713123
      0.70000000	      2.68517458	      3.36259625	     -1.43450955	      0.84113345	      0.93488309	     -0.24224895	     21.31080198	     -6.54942908	     -2.30142190	     77.97019697	      1.36083666	      2.30965607	     -8.82368475	     -6.95554525	     15.58798121	      2.84841909	     -6.16145654	     31.22238014	      0.54493333	     16.73422716	     -4.51456560	     -6.95554525	    -10.94382642	    -19.28696362	     -0.64666326	      4.65684431	    -11.19037638	      2.26795416	     61.71942282	    108.59007139	      7.29553498	     -9.32585963	    -11.42866493	     36.74132901	    103.30802439
      0.71000000	      2.84702672	      3.20025370	     -1.57148303	      0.85203312	      0.93773550	     -0.24196956	     22.35767679	     -5.96683827	     -1.91756482	     76.87176669	      1.34166543	      3.13718554	     -7.37197948	     -6.97366465	     14.08873116	      2.82992428	     -5.93948972	     30.19924780	      0.52707631	     16.83276948	     -4.57377145	     -6.97366465	    -11.16781970	    -19.09731143	     -1.01027237	      4.27092302	    -10.77597495	      1.81608121	     61.04814950	    108.73264950	      8.01024160	     -9.17304123	    -11.50320363	     36.75045576	    103.49911122
      0.72000000	      2.97830734	      2.99231085	     -1.70580240	      0.86303176	      0.94075880	     -0.24155187	     23.28786617	     -5.33842918	     -1.66472174	     75.38292327	      1.31568021	      3.40675017	     -6.69326575	     -6.98241596	     12.55462000	      2.73057671	     -5.79975792	     29.04959780	      0.50701113	     17.00252825	     -4.57433786	     -6.98241596	    -11.26940046	    -18.84837570	     -1.32261257	      3.92723944	    -10.31682147	      1.44609851	     60.18805446	    108.73369372	      8.61178186	     -8.99407249	    -11.55193797	     36.95900080	    103.61092075
      0.73000000	      2.91982926	      2.73326637	     -1.77689924	      0.87413942	      0.94363713	     -0.24115042	     24.29104861	     -4.67325347	     -1.52154661	     73.58202620	      1.28424863	      3.66190232	     -6.26923030	     -6.98658341	     11.18358615	      2.57108434	     -5.62198837	     27.82070548	      0.48556291	     17.06998281	     -4.45569493	     -6.98658341	    -11.11548555	    -18.48851230	     -1.66785768	      3.44149739	     -9.96458769	      1.21955195	     59.56975448	    108.71218423	      9.05870982	     -8.81939037	    -11.56511503	     37.25523307	    103.68436439
      0.74000000	      3.06073234	      2.45184873	     -1.83766023	      0.88534482	      0.94694237	     -0.24073044	     24.88307899	     -4.06404128	     -1.52108321	     71.40264380	      1.24621123	      3.97403778	     -5.81183252	     -6.99226555	      9.48225660	      2.39336671	     -5.44800283	     26.36658484	      0.46018372	     17.05774531	     -4.25124718	     -6.99226555	    -11.19263969	    -18.09724060	     -2.03739397	      3.05471506	     -9.55480548	      0.81270553	     58.80044489	    108.67774873	      9.49325597	     -8.65374496	    -11.62414900	     37.63330782	    103.77641303
      0.75000000	      3.22274759	      2.13817833	     -1.83690552	      0.89668244	      0.95030655	     -0.24043920	     25.27825983	     -3.51942448	     -1.70031719	     68.90280639	      1.20258084	      4.21374874	     -5.53672413	     -7.00004659	      7.73872011	      2.17428912	     -5.33175658	     24.86769763	      0.43402320	     16.97641276	     -3.98569008	     -7.00004659	    -11.29754129	    -17.62709551	     -2.49297421	      2.64529712	     -9.19304513	      0.42529618	     58.16834417	    108.67116494	      9.82416492	     -8.47514790	    -11.69561044	     38.13610184	    103.89635997
      0.76000000	      2.94258834	      1.78949760	     -1.82894493	      0.90813213	      0.95283473	     -0.24019586	     26.10682936	     -2.97747785	     -1.96273063	     66.26759697	      1.15658775	      4.33786755	     -5.42065568	     -7.00320786	      6.52827190	      1.88296994	     -5.25565821	     23.47341690	      0.40968841	     16.96019429	     -3.75347700	     -7.00320786	    -10.78781828	    -17.05627937	     -2.87898563	      2.01818926	     -8.98783185	      0.26076271	     57.78234618	    108.66125004	      9.97182758	     -8.30146975	    -11.63684087	     38.58312252	    103.97409691
      0.77000000	      3.23646528	      1.28891233	     -1.74779763	      0.91953382	      0.95622128	     -0.24007306	     26.01946298	     -2.36015999	     -2.42416438	     63.11856456	      1.10162677	      4.09439413	     -5.74398843	     -7.01276719	      4.61724993	      1.44944977	     -5.13080788	     21.91033223	      0.38240744	     16.81460829	     -3.29799852	     -7.01276719	    -11.11106400	    -16.31639772	     -3.45062702	      1.69628088	     -8.71908048	     -0.16720878	     57.25248572	    108.68030704	     10.18294476	     -8.15585544	    -11.57796149	     39.36885172	    104.12321150
      0.78000000	      3.17316504	      0.78677371	     -1.64847199	      0.93102363	      0.95879525	     -0.23999161	     26.26499310	     -1.77842262	     -2.93515774	     59.84179363	      1.04443633	      3.75992113	     -6.07814294	     -7.02187381	      3.19421576	      0.97534616	     -5.04620518	     20.54227050	      0.35853026	     16.74383232	     -2.88282001	     -7.02187381	    -10.95249753	    -15.53691612	     -3.98084087	      1.19539519	     -8.56552490	     -0.43599157	     56.92470099	    108.72094296	     10.27585150	     -8.01874699	    -11.42563838	     40.11172459	    104.25572568
      0.79000000	      2.93923495	      0.28580506	     -1.54341453	      0.94252788	      0.96082602	     -0.23997066	     26.59714808	     -1.23016528	     -3.45596756	     56.37892036	      0.98399779	      3.47585656	     -6.19846226	     -7.02792370	      2.01750843	      0.50265847	     -4.93173186	     19.27922333	      0.33648592	     16.66725647	     -2.49992534	     -7.02792370	    -10.58882060	    -14.71812337	     -4.49650424	      0.63454022	     -8.48472731	     -0.69223747	     56.68929045	    108.73964029	     10.32778142	     -7.89890781	    -11.16946895	     40.83635584	    104.36785328
